<?xml version="1.0" encoding="UTF-8" standalone="no"?>
<svg
   fill="none"
   viewBox="0 0 36 36"
   version="1.1"
   id="svg2"
   sodipodi:docname="favicon.svg"
   inkscape:version="1.3.2 (091e20e, 2023-11-25)"
   xmlns:inkscape="http://www.inkscape.org/namespaces/inkscape"
   xmlns:sodipodi="http://sodipodi.sourceforge.net/DTD/sodipodi-0.dtd"
   xmlns="http://www.w3.org/2000/svg"
   xmlns:svg="http://www.w3.org/2000/svg">
  <sodipodi:namedview
     id="namedview2"
     pagecolor="#ffffff"
     bordercolor="#000000"
     borderopacity="0.25"
     inkscape:showpageshadow="2"
     inkscape:pageopacity="0.0"
     inkscape:pagecheckerboard="0"
     inkscape:deskcolor="#d1d1d1"
     inkscape:zoom="6.5555556"
     inkscape:cx="18"
     inkscape:cy="18"
     inkscape:window-width="1312"
     inkscape:window-height="449"
     inkscape:window-x="0"
     inkscape:window-y="34"
     inkscape:window-maximized="0"
     inkscape:current-layer="svg2" />
   <defs
      id="defs2">
     <linearGradient
        id="gradient"
        x1="16"
        x2="16"
        y1="32"
        y2="24"
        gradientUnits="userSpaceOnUse"
        gradientTransform="translate(5.0338983,-0.45762711)">
       <stop
          stop-color="#000000"
          stop-opacity="1"
          id="stop1" />
       <stop
          offset="1"
          stop-color="#000000"
          stop-opacity="0"
          id="stop2" />
     </linearGradient>
   </defs>
   <style
      id="style2">
     text {
       font-family: sans-serif;
       font-weight: bold;
       font-size: 29.6246px;
       fill: #000000;
     }
   </style>
  <text
     xml:space="preserve"
     x="7.3898306"
     y="24.711864"
     id="text2">6</text>
  <path
     fill="url(#gradient)"
     d="m 18.084908,27.542373 a 7.63,7.63 0 0 1 -4.999999,-2 c -1.4,2.1 -0.35,4.35 0.6,5.55 0.14,0.17 0.41,0.07 0.47,-0.15 0.44,-1.8 2.929999,-1.22 2.929999,0.6 0,2.28 0.87,3.4 1.72,3.81 0.34,0.16 0.59,-0.2 0.49,-0.56 -0.31,-1.05 -0.29,-2.46 1.29,-3.25 3,-1.5 3.17,-4.83 2.5,-6 -0.67,0.67 -2.6,2 -5,2 z"
     id="path2"
     style="fill:url(#gradient)" />
</svg>
